<svg xmlns="http://www.w3.org/2000/svg" xmlns:xlink="http://www.w3.org/1999/xlink" width="500" zoomAndPan="magnify" viewBox="0 0 375 374.999991" height="500" preserveAspectRatio="xMidYMid meet" version="1.0"><defs><g/><clipPath id="4a8ebd8703"><path d="M 4.257812 4.257812 L 370.742188 4.257812 L 370.742188 370.742188 L 4.257812 370.742188 Z M 4.257812 4.257812 " clip-rule="nonzero"/></clipPath><clipPath id="a95943f503"><path d="M 187.5 4.257812 C 86.296875 4.257812 4.257812 86.296875 4.257812 187.5 C 4.257812 288.703125 86.296875 370.742188 187.5 370.742188 C 288.703125 370.742188 370.742188 288.703125 370.742188 187.5 C 370.742188 86.296875 288.703125 4.257812 187.5 4.257812 Z M 187.5 4.257812 " clip-rule="nonzero"/></clipPath><clipPath id="a0931bd023"><path d="M 261.484375 113.3125 L 292.050781 113.3125 L 292.050781 143.878906 L 261.484375 143.878906 Z M 261.484375 113.3125 " clip-rule="nonzero"/></clipPath><clipPath id="2ebb91db91"><path d="M 276.765625 113.3125 C 268.324219 113.3125 261.484375 120.15625 261.484375 128.597656 C 261.484375 137.039062 268.324219 143.878906 276.765625 143.878906 C 285.207031 143.878906 292.050781 137.039062 292.050781 128.597656 C 292.050781 120.15625 285.207031 113.3125 276.765625 113.3125 Z M 276.765625 113.3125 " clip-rule="nonzero"/></clipPath></defs><g clip-path="url(#4a8ebd8703)"><g clip-path="url(#a95943f503)"><path fill="#ffffff" d="M 4.257812 4.257812 L 370.742188 4.257812 L 370.742188 370.742188 L 4.257812 370.742188 Z M 4.257812 4.257812 " fill-opacity="1" fill-rule="nonzero"/></g></g><g fill="#20396f" fill-opacity="1"><g transform="translate(79.730009, 236.864208)"><g><path d="M 56.328125 -105.21875 C 56.328125 -108.445312 57.535156 -111.296875 59.953125 -113.765625 C 62.367188 -116.242188 65.191406 -117.484375 68.421875 -117.484375 L 80.34375 -117.484375 L 80.34375 -35.421875 C 80.34375 -29.429688 79.882812 -24.015625 78.96875 -19.171875 C 75.28125 -5.234375 63.472656 1.734375 43.546875 1.734375 C 34.554688 1.734375 26.835938 0.09375 20.390625 -3.1875 C 13.941406 -6.476562 9.738281 -11.460938 7.78125 -18.140625 C 6.625 -20.785156 6.046875 -26.546875 6.046875 -35.421875 L 6.046875 -44.578125 L 29.03125 -44.578125 L 29.03125 -30.40625 C 29.03125 -22.113281 33.75 -17.96875 43.1875 -17.96875 C 51.945312 -17.96875 56.328125 -22.460938 56.328125 -31.453125 Z M 56.328125 -105.21875 "/></g></g><g transform="translate(165.77182, 236.864208)"><g><path d="M 46.828125 -92.78125 C 74.585938 -92.78125 88.46875 -76.941406 88.46875 -45.265625 C 88.46875 -13.703125 74.585938 2.078125 46.828125 2.078125 C 19.179688 2.078125 5.359375 -13.703125 5.359375 -45.265625 C 5.359375 -76.941406 19.179688 -92.78125 46.828125 -92.78125 Z M 46.828125 -72.5625 C 34.734375 -72.5625 28.6875 -63.460938 28.6875 -45.265625 C 28.914062 -27.410156 34.90625 -18.484375 46.65625 -18.484375 C 58.289062 -18.484375 64.222656 -27.640625 64.453125 -45.953125 C 64.453125 -63.691406 58.578125 -72.5625 46.828125 -72.5625 Z M 46.828125 -72.5625 "/></g></g></g><g fill="#20396f" fill-opacity="1"><g transform="translate(259.242913, 236.864208)"><g><path d="M 6.046875 -117.484375 L 17.96875 -117.484375 C 25.570312 -117.484375 29.257812 -113.742188 29.03125 -106.265625 L 29.03125 -99.515625 L 6.046875 -99.515625 Z M 6.046875 -91.40625 L 17.96875 -91.40625 C 25.34375 -91.40625 29.03125 -87.71875 29.03125 -80.34375 L 29.03125 0 L 6.046875 0 Z M 6.046875 -91.40625 "/></g></g></g><g clip-path="url(#a0931bd023)"><g clip-path="url(#2ebb91db91)"><path fill="#fdc632" d="M 261.484375 113.3125 L 292.050781 113.3125 L 292.050781 143.878906 L 261.484375 143.878906 Z M 261.484375 113.3125 " fill-opacity="1" fill-rule="nonzero"/></g></g></svg>