<svg xmlns="http://www.w3.org/2000/svg" xmlns:xlink="http://www.w3.org/1999/xlink" width="313" zoomAndPan="magnify" viewBox="0 0 234.75 67.499998" height="90" preserveAspectRatio="xMidYMid meet" version="1.0"><defs><g/><clipPath id="4b1f92a521"><path d="M 52.167969 15.011719 L 61.113281 15.011719 L 61.113281 22.5 L 52.167969 22.5 Z M 52.167969 15.011719 " clip-rule="nonzero"/></clipPath><clipPath id="38555f947c"><path d="M 52.953125 15.011719 L 60.328125 15.011719 L 60.328125 22.386719 L 52.953125 22.386719 Z M 52.953125 15.011719 " clip-rule="nonzero"/></clipPath><clipPath id="25aad10c9e"><path d="M 56.640625 15.011719 C 54.601562 15.011719 52.953125 16.664062 52.953125 18.699219 C 52.953125 20.738281 54.601562 22.386719 56.640625 22.386719 C 58.675781 22.386719 60.328125 20.738281 60.328125 18.699219 C 60.328125 16.664062 58.675781 15.011719 56.640625 15.011719 Z M 56.640625 15.011719 " clip-rule="nonzero"/></clipPath></defs><g fill="#20396f" fill-opacity="1"><g transform="translate(9.077209, 45.115806)"><g><path d="M 13.589844 -25.390625 C 13.589844 -26.167969 13.882812 -26.855469 14.46875 -27.453125 C 15.050781 -28.050781 15.730469 -28.351562 16.507812 -28.351562 L 19.386719 -28.351562 L 19.386719 -8.546875 C 19.386719 -7.101562 19.273438 -5.796875 19.054688 -4.628906 C 18.164062 -1.265625 15.316406 0.417969 10.507812 0.417969 C 8.339844 0.417969 6.476562 0.0195312 4.917969 -0.769531 C 3.363281 -1.5625 2.347656 -2.765625 1.875 -4.378906 C 1.597656 -5.015625 1.460938 -6.40625 1.460938 -8.546875 L 1.460938 -10.757812 L 7.003906 -10.757812 L 7.003906 -7.335938 C 7.003906 -5.335938 8.144531 -4.335938 10.421875 -4.335938 C 12.535156 -4.335938 13.589844 -5.417969 13.589844 -7.585938 Z M 13.589844 -25.390625 "/></g></g><g transform="translate(29.839414, 45.115806)"><g><path d="M 11.296875 -22.386719 C 17.996094 -22.386719 21.347656 -18.566406 21.347656 -10.921875 C 21.347656 -3.308594 17.996094 0.5 11.296875 0.5 C 4.628906 0.5 1.292969 -3.308594 1.292969 -10.921875 C 1.292969 -18.566406 4.628906 -22.386719 11.296875 -22.386719 Z M 11.296875 -17.511719 C 8.378906 -17.511719 6.921875 -15.316406 6.921875 -10.921875 C 6.976562 -6.613281 8.421875 -4.460938 11.257812 -4.460938 C 14.0625 -4.460938 15.496094 -6.671875 15.550781 -11.089844 C 15.550781 -15.371094 14.132812 -17.511719 11.296875 -17.511719 Z M 11.296875 -17.511719 "/></g></g></g><g fill="#20396f" fill-opacity="1"><g transform="translate(52.394331, 45.115806)"><g><path d="M 1.460938 -28.351562 L 4.335938 -28.351562 C 6.171875 -28.351562 7.058594 -27.445312 7.003906 -25.640625 L 7.003906 -24.015625 L 1.460938 -24.015625 Z M 1.460938 -22.054688 L 4.335938 -22.054688 C 6.113281 -22.054688 7.003906 -21.164062 7.003906 -19.386719 L 7.003906 0 L 1.460938 0 Z M 1.460938 -22.054688 "/></g></g></g><g fill="#939695" fill-opacity="1"><g transform="translate(61.07485, 45.115806)"><g><path d="M 13.339844 -4.378906 C 15.203125 -4.378906 16.585938 -4.667969 17.488281 -5.253906 C 18.394531 -5.835938 18.832031 -6.710938 18.800781 -7.878906 C 18.800781 -9.242188 17.941406 -10.171875 16.21875 -10.671875 C 15.273438 -10.949219 13.398438 -11.464844 10.589844 -12.214844 C 5.058594 -13.632812 2.292969 -16.21875 2.292969 -19.96875 C 2.402344 -25.890625 5.960938 -28.835938 12.964844 -28.808594 C 19.609375 -28.808594 23.097656 -25.875 23.429688 -20.011719 L 20.179688 -20.011719 C 19.011719 -20.011719 18.148438 -20.566406 17.59375 -21.679688 C 16.648438 -23.292969 14.9375 -24.097656 12.464844 -24.097656 C 9.519531 -24.070312 7.976562 -22.957031 7.839844 -20.761719 C 7.839844 -18.984375 9.671875 -17.675781 13.339844 -16.84375 C 15.703125 -16.289062 17.953125 -15.632812 20.09375 -14.882812 C 23.265625 -13.800781 24.765625 -11.464844 24.597656 -7.878906 C 24.265625 -2.347656 20.511719 0.417969 13.339844 0.417969 C 5.863281 0.417969 2.042969 -2.683594 1.875 -8.878906 L 7.503906 -8.878906 C 7.726562 -5.878906 9.671875 -4.378906 13.339844 -4.378906 Z M 13.339844 -4.378906 "/></g></g><g transform="translate(87.048452, 45.115806)"><g><path d="M 11.296875 -22.386719 C 17.996094 -22.386719 21.347656 -18.566406 21.347656 -10.921875 C 21.347656 -3.308594 17.996094 0.5 11.296875 0.5 C 4.628906 0.5 1.292969 -3.308594 1.292969 -10.921875 C 1.292969 -18.566406 4.628906 -22.386719 11.296875 -22.386719 Z M 11.296875 -17.511719 C 8.378906 -17.511719 6.921875 -15.316406 6.921875 -10.921875 C 6.976562 -6.613281 8.421875 -4.460938 11.257812 -4.460938 C 14.0625 -4.460938 15.496094 -6.671875 15.550781 -11.089844 C 15.550781 -15.371094 14.132812 -17.511719 11.296875 -17.511719 Z M 11.296875 -17.511719 "/></g></g></g><g fill="#939695" fill-opacity="1"><g transform="translate(109.603368, 45.115806)"><g><path d="M 4.335938 -28.351562 C 5.058594 -28.351562 5.683594 -28.078125 6.210938 -27.535156 C 6.738281 -26.996094 7.003906 -26.363281 7.003906 -25.640625 L 7.003906 0 L 1.460938 0 L 1.460938 -28.351562 Z M 4.335938 -28.351562 "/></g></g></g><g fill="#939695" fill-opacity="1"><g transform="translate(118.275129, 45.115806)"><g><path d="M 20.011719 -22.054688 L 20.011719 -8.796875 C 20.011719 -4.988281 19.039062 -2.488281 17.09375 -1.292969 C 15.121094 -0.152344 12.953125 0.417969 10.589844 0.417969 C 8.339844 0.417969 6.253906 -0.207031 4.335938 -1.460938 C 2.417969 -2.65625 1.460938 -5.101562 1.460938 -8.796875 L 1.460938 -22.054688 L 7.003906 -22.054688 L 7.003906 -7.671875 C 7.003906 -5.226562 8.253906 -4.003906 10.757812 -4.003906 C 13.257812 -4.003906 14.507812 -5.226562 14.507812 -7.671875 L 14.507812 -19.304688 C 14.453125 -21.136719 15.34375 -22.054688 17.175781 -22.054688 Z M 20.011719 -22.054688 "/></g></g></g><g fill="#939695" fill-opacity="1"><g transform="translate(139.245788, 45.115806)"><g><path d="M 10.339844 -20.84375 C 10.339844 -20.066406 10.074219 -19.414062 9.546875 -18.886719 C 9.019531 -18.359375 8.367188 -18.09375 7.585938 -18.09375 L 7.003906 -18.09375 L 7.003906 -5.878906 C 7.003906 -4.933594 7.546875 -4.460938 8.628906 -4.460938 L 10.339844 -4.460938 L 10.339844 -0.25 C 8.476562 -0.0820312 6.53125 -0.0976562 4.503906 -0.292969 C 2.445312 -0.488281 1.429688 -1.804688 1.460938 -4.253906 L 1.460938 -28.351562 L 4.335938 -28.351562 C 5.058594 -28.351562 5.683594 -28.070312 6.210938 -27.515625 C 6.738281 -26.960938 7.003906 -26.308594 7.003906 -25.558594 L 7.003906 -22.054688 L 10.339844 -22.054688 Z M 10.339844 -20.84375 "/></g></g></g><g fill="#939695" fill-opacity="1"><g transform="translate(151.29453, 45.115806)"><g><path d="M 1.460938 -28.351562 L 4.335938 -28.351562 C 6.171875 -28.351562 7.058594 -27.445312 7.003906 -25.640625 L 7.003906 -24.015625 L 1.460938 -24.015625 Z M 1.460938 -22.054688 L 4.335938 -22.054688 C 6.113281 -22.054688 7.003906 -21.164062 7.003906 -19.386719 L 7.003906 0 L 1.460938 0 Z M 1.460938 -22.054688 "/></g></g></g><g fill="#939695" fill-opacity="1"><g transform="translate(159.966291, 45.115806)"><g><path d="M 11.296875 -22.386719 C 17.996094 -22.386719 21.347656 -18.566406 21.347656 -10.921875 C 21.347656 -3.308594 17.996094 0.5 11.296875 0.5 C 4.628906 0.5 1.292969 -3.308594 1.292969 -10.921875 C 1.292969 -18.566406 4.628906 -22.386719 11.296875 -22.386719 Z M 11.296875 -17.511719 C 8.378906 -17.511719 6.921875 -15.316406 6.921875 -10.921875 C 6.976562 -6.613281 8.421875 -4.460938 11.257812 -4.460938 C 14.0625 -4.460938 15.496094 -6.671875 15.550781 -11.089844 C 15.550781 -15.371094 14.132812 -17.511719 11.296875 -17.511719 Z M 11.296875 -17.511719 "/></g></g></g><g fill="#939695" fill-opacity="1"><g transform="translate(182.521208, 45.115806)"><g><path d="M 20.261719 0 L 17.425781 0 C 15.59375 -0.109375 14.675781 -1.027344 14.675781 -2.75 L 14.675781 -14.089844 C 14.5625 -16.371094 13.285156 -17.511719 10.839844 -17.511719 C 8.367188 -17.511719 7.117188 -16.371094 7.085938 -14.089844 L 7.085938 0 L 1.460938 0 L 1.460938 -12.964844 C 1.460938 -19.246094 4.613281 -22.386719 10.921875 -22.386719 C 17.175781 -22.386719 20.289062 -19.246094 20.261719 -12.964844 Z M 20.261719 0 "/></g></g></g><g fill="#939695" fill-opacity="1"><g transform="translate(203.825395, 45.115806)"><g><path d="M 6.503906 -7.253906 C 6.613281 -5.085938 8.144531 -4.003906 11.089844 -4.003906 C 13.425781 -4.003906 14.59375 -4.695312 14.59375 -6.085938 C 14.59375 -7.226562 12.6875 -8.128906 8.878906 -8.796875 C 3.960938 -9.6875 1.488281 -11.855469 1.460938 -15.300781 C 1.460938 -17.578125 2.265625 -19.316406 3.878906 -20.511719 C 5.488281 -21.707031 7.617188 -22.332031 10.257812 -22.386719 C 13.089844 -22.386719 15.34375 -21.761719 17.011719 -20.511719 C 18.621094 -19.234375 19.496094 -17.441406 19.636719 -15.132812 L 16.132812 -15.132812 C 14.828125 -15.191406 14.007812 -15.648438 13.675781 -16.507812 C 13.285156 -17.511719 12.171875 -18.011719 10.339844 -18.011719 C 8.171875 -18.011719 7.085938 -17.441406 7.085938 -16.300781 C 7.085938 -15.132812 8.519531 -14.285156 11.382812 -13.757812 C 15.105469 -13.007812 17.578125 -12.0625 18.800781 -10.921875 C 19.832031 -9.867188 20.34375 -8.5625 20.34375 -7.003906 C 20.34375 -4.417969 19.441406 -2.535156 17.636719 -1.355469 C 15.828125 -0.171875 13.367188 0.417969 10.257812 0.417969 C 7.171875 0.417969 4.863281 -0.234375 3.335938 -1.542969 C 1.667969 -2.792969 0.832031 -4.695312 0.832031 -7.253906 Z M 6.503906 -7.253906 "/></g></g></g><g clip-path="url(#4b1f92a521)"><path fill="#ffffff" d="M 52.167969 15.011719 L 61.121094 15.011719 L 61.121094 22.5 L 52.167969 22.5 Z M 52.167969 15.011719 " fill-opacity="1" fill-rule="nonzero"/></g><g clip-path="url(#38555f947c)"><g clip-path="url(#25aad10c9e)"><path fill="#fdc632" d="M 52.953125 15.011719 L 60.328125 15.011719 L 60.328125 22.386719 L 52.953125 22.386719 Z M 52.953125 15.011719 " fill-opacity="1" fill-rule="nonzero"/></g></g></svg>